<?xml version="1.0" ?><svg fill="none" height="24" viewBox="0 0 24 24" width="24" xmlns="http://www.w3.org/2000/svg"><path clip-rule="evenodd" d="M17.8536 8.85356L10.8536 15.8536C10.7598 15.9473 10.6326 16 10.5 16C10.3674 16 10.2403 15.9473 10.1465 15.8536L6.14648 11.8536L6.85359 11.1465L10.5 14.7929L17.1465 8.14645L17.8536 8.85356Z" fill="black" fill-rule="evenodd"/><path clip-rule="evenodd" d="M12 2.5C6.75329 2.5 2.5 6.75329 2.5 12C2.5 17.2467 6.75329 21.5 12 21.5C17.2467 21.5 21.5 17.2467 21.5 12C21.5 6.75329 17.2467 2.5 12 2.5ZM1.5 12C1.5 6.20101 6.20101 1.5 12 1.5C17.799 1.5 22.5 6.20101 22.5 12C22.5 17.799 17.799 22.5 12 22.5C6.20101 22.5 1.5 17.799 1.5 12Z" fill="black" fill-rule="evenodd"/></svg>